<svg xmlns="http://www.w3.org/2000/svg" width="340" height="200" viewBox="0 0 340 200"><style>* { font-family: 'Segoe UI', Ubuntu, Sans-Serif }</style><rect x="1" y="1" rx="5" ry="5" height="99%" width="99.4%" stroke="#1a1b27" stroke-width="1" fill="#1a1b27"/><text x="30" y="40" style="font-size: 22px; fill: #70a5fd;">Top Languages by Code</text><path d="M250.0,58.0A60,60,0,0,1,304.056,144.038L281.532,133.189A35,35,0,0,0,250.0,83.0Z" fill="#b07219"/><rect x="40" y="58" width="14" height="14" rx="2" fill="#b07219"/><text x="62" y="70" style="font-size: 14px; fill: #38bdae;">Java 32.1%</text><path d="M304.056,144.038A60,60,0,0,1,207.608,160.461L225.271,142.769A35,35,0,0,0,281.532,133.189Z" fill="#00B4AB"/><rect x="40" y="83" width="14" height="14" rx="2" fill="#00B4AB"/><text x="62" y="95" style="font-size: 14px; fill: #38bdae;">Dart 30.3%</text><path d="M207.608,160.461A60,60,0,0,1,203.303,80.325L222.76,96.023A35,35,0,0,0,225.271,142.769Z" fill="#555555"/><rect x="40" y="108" width="14" height="14" rx="2" fill="#555555"/><text x="62" y="120" style="font-size: 14px; fill: #38bdae;">C 23.3%</text><path d="M203.303,80.325A60,60,0,0,1,241.699,58.577L245.158,83.337A35,35,0,0,0,222.76,96.023Z" fill="#3572A5"/><rect x="40" y="133" width="14" height="14" rx="2" fill="#3572A5"/><text x="62" y="145" style="font-size: 14px; fill: #38bdae;">Python 12.0%</text><path d="M241.699,58.577A60,60,0,0,1,250.0,58.0L250.0,83.0A35,35,0,0,0,245.158,83.337Z" fill="#f34b7d"/><rect x="40" y="158" width="14" height="14" rx="2" fill="#f34b7d"/><text x="62" y="170" style="font-size: 14px; fill: #38bdae;">C++ 2.2%</text></svg>
