<svg xmlns="http://www.w3.org/2000/svg" width="340" height="200" viewBox="0 0 340 200"><style>* { font-family: 'Segoe UI', Ubuntu, Sans-Serif }</style><rect x="1" y="1" rx="5" ry="5" height="99%" width="99.4%" stroke="#1a1b27" stroke-width="1" fill="#1a1b27"/><text x="30" y="40" style="font-size: 22px; fill: #70a5fd;">Top Languages by Code</text><path d="M250.0,58.0A60,60,0,0,1,303.462,145.237L281.186,133.888A35,35,0,0,0,250.0,83.0Z" fill="#b07219"/><rect x="40" y="58" width="14" height="14" rx="2" fill="#b07219"/><text x="62" y="70" style="font-size: 14px; fill: #38bdae;">Java 32.5%</text><path d="M303.462,145.237A60,60,0,0,1,214.946,166.695L229.552,146.405A35,35,0,0,0,281.186,133.888Z" fill="#00B4AB"/><rect x="40" y="83" width="14" height="14" rx="2" fill="#00B4AB"/><text x="62" y="95" style="font-size: 14px; fill: #38bdae;">Dart 27.4%</text><path d="M214.946,166.695A60,60,0,0,1,199.909,84.972L220.78,98.733A35,35,0,0,0,229.552,146.405Z" fill="#555555"/><rect x="40" y="108" width="14" height="14" rx="2" fill="#555555"/><text x="62" y="120" style="font-size: 14px; fill: #38bdae;">C 24.3%</text><path d="M199.909,84.972A60,60,0,0,1,228.209,62.097L237.289,85.39A35,35,0,0,0,220.78,98.733Z" fill="#f34b7d"/><rect x="40" y="133" width="14" height="14" rx="2" fill="#f34b7d"/><text x="62" y="145" style="font-size: 14px; fill: #38bdae;">C++ 9.8%</text><path d="M228.209,62.097A60,60,0,0,1,250.0,58.0L250.0,83.0A35,35,0,0,0,237.289,85.39Z" fill="#DA3434"/><rect x="40" y="158" width="14" height="14" rx="2" fill="#DA3434"/><text x="62" y="170" style="font-size: 14px; fill: #38bdae;">CMake 5.9%</text></svg>
