<svg xmlns="http://www.w3.org/2000/svg" width="340" height="200" viewBox="0 0 340 200"><style>* { font-family: 'Segoe UI', Ubuntu, Sans-Serif }</style><rect x="1" y="1" rx="5" ry="5" height="99%" width="99.4%" stroke="#1a1b27" stroke-width="1" fill="#1a1b27"/><text x="30" y="40" style="font-size: 22px; fill: #70a5fd;">Top Languages by Code</text><path d="M250.0,58.0A60,60,0,0,1,258.364,177.414L254.879,152.658A35,35,0,0,0,250.0,83.0Z" fill="#b07219"/><rect x="40" y="58" width="14" height="14" rx="2" fill="#b07219"/><text x="62" y="70" style="font-size: 14px; fill: #38bdae;">Java 47.8%</text><path d="M258.364,177.414A60,60,0,0,1,199.253,85.989L220.397,99.327A35,35,0,0,0,254.879,152.658Z" fill="#555555"/><rect x="40" y="83" width="14" height="14" rx="2" fill="#555555"/><text x="62" y="95" style="font-size: 14px; fill: #38bdae;">C 36.2%</text><path d="M199.253,85.989A60,60,0,0,1,224.484,63.696L235.116,86.323A35,35,0,0,0,220.397,99.327Z" fill="#f34b7d"/><rect x="40" y="108" width="14" height="14" rx="2" fill="#f34b7d"/><text x="62" y="120" style="font-size: 14px; fill: #38bdae;">C++ 9.1%</text><path d="M224.484,63.696A60,60,0,0,1,240.409,58.772L244.405,83.45A35,35,0,0,0,235.116,86.323Z" fill="#DA3434"/><rect x="40" y="133" width="14" height="14" rx="2" fill="#DA3434"/><text x="62" y="145" style="font-size: 14px; fill: #38bdae;">CMake 4.4%</text><path d="M240.409,58.772A60,60,0,0,1,250.0,58.0L250.0,83.0A35,35,0,0,0,244.405,83.45Z" fill="#3572A5"/><rect x="40" y="158" width="14" height="14" rx="2" fill="#3572A5"/><text x="62" y="170" style="font-size: 14px; fill: #38bdae;">Python 2.6%</text></svg>
